<svg width="377" height="115" viewBox="0 0 377 115" fill="none" xmlns="http://www.w3.org/2000/svg">
<g clip-path="url(#clip0_14_2)">
<path d="M18.6575 75.924C15.3657 76.2774 12.1528 77.5088 9.39644 79.6136L1.16435 48.8966C0.00716539 44.5757 1.24342 39.9637 4.40711 36.8012L36.7988 4.40714C39.9613 1.24345 44.5733 0.0071959 48.8941 1.16438L78.4755 9.0922C76.4726 11.8977 75.3429 15.1369 75.0902 18.4335L50.5305 11.8522C47.029 10.9142 43.2915 11.9145 40.7291 14.4792L14.4792 40.7292C11.9169 43.2915 10.9142 47.029 11.8522 50.5305L18.6575 75.924ZM96.1376 38.2495L103.169 64.4934C104.107 67.995 103.107 71.7325 100.541 74.2948L74.2924 100.544C71.73 103.107 67.9925 104.11 64.491 103.172L39.0976 96.3664C38.7442 99.6583 37.5127 102.871 35.408 105.628L66.125 113.86C70.4459 115.017 75.0578 113.781 78.2203 110.617L110.614 78.2228C113.778 75.0591 115.014 70.4483 113.857 66.1274L105.317 34.2592C102.611 36.467 99.4247 37.7967 96.1376 38.2495Z" fill="#4EDADD"/>
<path d="M31.1722 83.8518C36.9725 89.6509 36.9725 99.0881 31.1722 104.888C25.3719 110.689 15.9347 110.689 10.1356 104.888C4.33526 99.0881 4.33526 89.6509 10.1356 83.8518C15.9347 78.0515 25.3719 78.0515 31.1722 83.8518ZM83.0815 9.36771C77.2824 15.168 77.2824 24.6052 83.0815 30.4055C88.8818 36.2058 98.319 36.2058 104.119 30.4055C109.92 24.6052 109.92 15.168 104.119 9.36771C98.319 3.56859 88.8818 3.56859 83.0815 9.36771ZM80.4736 33.011C77.5088 30.0461 75.7598 26.3182 75.2244 22.4549L51.1666 16.009C47.9838 15.156 44.5877 16.0665 42.2553 18.3952L18.3952 42.2553C16.0665 44.5853 15.156 47.9814 16.009 51.1666L22.643 75.924C26.7135 76.36 30.6679 78.1305 33.7813 81.2427C36.8934 84.3561 38.664 88.3104 39.1 92.3809L63.8573 99.015C67.0402 99.8679 70.4363 98.9575 72.7686 96.6276L96.6276 72.7687C98.9575 70.4387 99.8679 67.0426 99.015 63.8573L92.1881 38.3825C87.9151 38.059 83.7344 36.2717 80.4736 33.011Z" fill="#5271FF"/>
</g>
<path d="M162.68 67.755V72.75H143.623V40.215H149.675V67.755H162.68ZM173.076 45.03V54.0525H184.461V58.71H173.076V67.9125H187.521V72.75H167.001V40.215H187.521V45.03H173.076ZM198.96 72.75H192.885V40.215H198.96V72.75ZM223.57 46.1325C223.39 46.4475 223.195 46.68 222.985 46.83C222.79 46.965 222.542 47.0325 222.242 47.0325C221.927 47.0325 221.582 46.92 221.207 46.695C220.847 46.455 220.412 46.1925 219.902 45.9075C219.392 45.6225 218.792 45.3675 218.102 45.1425C217.427 44.9025 216.625 44.7825 215.695 44.7825C214.855 44.7825 214.12 44.8875 213.49 45.0975C212.86 45.2925 212.327 45.57 211.892 45.93C211.472 46.29 211.157 46.725 210.947 47.235C210.737 47.73 210.632 48.2775 210.632 48.8775C210.632 49.6425 210.842 50.28 211.262 50.79C211.697 51.3 212.267 51.735 212.972 52.095C213.677 52.455 214.48 52.7775 215.38 53.0625C216.28 53.3475 217.202 53.655 218.147 53.985C219.092 54.3 220.015 54.675 220.915 55.11C221.815 55.53 222.617 56.07 223.322 56.73C224.027 57.375 224.59 58.17 225.01 59.115C225.445 60.06 225.662 61.2075 225.662 62.5575C225.662 64.0275 225.407 65.4075 224.897 66.6975C224.402 67.9725 223.667 69.09 222.692 70.05C221.732 70.995 220.555 71.745 219.16 72.3C217.765 72.84 216.167 73.11 214.367 73.11C213.332 73.11 212.312 73.005 211.307 72.795C210.302 72.6 209.335 72.315 208.405 71.94C207.49 71.565 206.627 71.115 205.817 70.59C205.007 70.065 204.287 69.48 203.657 68.835L205.435 65.9325C205.585 65.7225 205.78 65.55 206.02 65.415C206.26 65.265 206.515 65.19 206.785 65.19C207.16 65.19 207.565 65.3475 208 65.6625C208.435 65.9625 208.952 66.3 209.552 66.675C210.152 67.05 210.85 67.395 211.645 67.71C212.455 68.01 213.422 68.16 214.547 68.16C216.272 68.16 217.607 67.755 218.552 66.945C219.497 66.12 219.97 64.9425 219.97 63.4125C219.97 62.5575 219.752 61.86 219.317 61.32C218.897 60.78 218.335 60.33 217.63 59.97C216.925 59.595 216.122 59.28 215.222 59.025C214.322 58.77 213.407 58.4925 212.477 58.1925C211.547 57.8925 210.632 57.5325 209.732 57.1125C208.832 56.6925 208.03 56.145 207.325 55.47C206.62 54.795 206.05 53.955 205.615 52.95C205.195 51.93 204.985 50.6775 204.985 49.1925C204.985 48.0075 205.217 46.8525 205.682 45.7275C206.162 44.6025 206.852 43.605 207.752 42.735C208.652 41.865 209.762 41.1675 211.082 40.6425C212.402 40.1175 213.917 39.855 215.627 39.855C217.547 39.855 219.317 40.155 220.937 40.755C222.557 41.355 223.937 42.195 225.077 43.275L223.57 46.1325ZM244.037 67.8675C245.207 67.8675 246.249 67.6725 247.164 67.2825C248.094 66.8925 248.874 66.345 249.504 65.64C250.134 64.935 250.614 64.08 250.944 63.075C251.289 62.07 251.462 60.945 251.462 59.7V40.215H257.514V59.7C257.514 61.635 257.199 63.4275 256.569 65.0775C255.954 66.7125 255.062 68.13 253.892 69.33C252.737 70.515 251.327 71.445 249.662 72.12C247.997 72.78 246.122 73.11 244.037 73.11C241.937 73.11 240.054 72.78 238.389 72.12C236.724 71.445 235.307 70.515 234.137 69.33C232.982 68.13 232.089 66.7125 231.459 65.0775C230.844 63.4275 230.537 61.635 230.537 59.7V40.215H236.589V59.6775C236.589 60.9225 236.754 62.0475 237.084 63.0525C237.429 64.0575 237.917 64.92 238.547 65.64C239.192 66.345 239.972 66.8925 240.887 67.2825C241.817 67.6725 242.867 67.8675 244.037 67.8675ZM274.173 55.695C275.313 55.695 276.303 55.5525 277.143 55.2675C277.998 54.9825 278.695 54.5925 279.235 54.0975C279.79 53.5875 280.203 52.9875 280.473 52.2975C280.743 51.6075 280.878 50.85 280.878 50.025C280.878 48.375 280.33 47.1075 279.235 46.2225C278.155 45.3375 276.498 44.895 274.263 44.895H270.393V55.695H274.173ZM289.743 72.75H284.275C283.24 72.75 282.49 72.345 282.025 71.535L275.185 61.1175C274.93 60.7275 274.645 60.45 274.33 60.285C274.03 60.12 273.58 60.0375 272.98 60.0375H270.393V72.75H264.34V40.215H274.263C276.468 40.215 278.358 40.4475 279.933 40.9125C281.523 41.3625 282.82 42 283.825 42.825C284.845 43.65 285.595 44.64 286.075 45.795C286.555 46.935 286.795 48.195 286.795 49.575C286.795 50.67 286.63 51.705 286.3 52.68C285.985 53.655 285.52 54.54 284.905 55.335C284.305 56.13 283.555 56.8275 282.655 57.4275C281.77 58.0275 280.758 58.5 279.618 58.845C280.008 59.07 280.368 59.34 280.698 59.655C281.028 59.955 281.328 60.315 281.598 60.735L289.743 72.75ZM299.331 45.03V54.0525H310.716V58.71H299.331V67.9125H313.776V72.75H293.256V40.215H313.776V45.03H299.331Z" fill="url(#paint0_angular_14_2)"/>
<defs>
<radialGradient id="paint0_angular_14_2" cx="0" cy="0" r="1" gradientUnits="userSpaceOnUse" gradientTransform="translate(258.125 57.5) rotate(-75.4655) scale(69.7316 286.506)">
<stop stop-color="#005FEE"/>
<stop offset="1" stop-color="#320064"/>
</radialGradient>
<clipPath id="clip0_14_2">
<rect width="115" height="115" fill="white"/>
</clipPath>
</defs>
</svg>
